<?xml version="1.0" standalone="no"?>
<!DOCTYPE svg PUBLIC "-//W3C//DTD SVG 20010904//EN"
 "http://www.w3.org/TR/2001/REC-SVG-20010904/DTD/svg10.dtd">
<svg version="1.0" xmlns="http://www.w3.org/2000/svg"
 width="1919.000000pt" height="1260.000000pt" viewBox="0 0 1919.000000 1260.000000"
 preserveAspectRatio="xMidYMid meet">

<g transform="translate(0.000000,1260.000000) scale(0.100000,-0.100000)"
fill="#000000" stroke="none">
<path d="M0 8574 l0 -4025 73 7 c39 3 104 14 142 24 55 14 99 18 200 15 72 -2
188 1 259 7 109 8 144 7 220 -7 50 -9 98 -19 106 -22 8 -4 20 -5 25 -3 43 11
303 22 640 25 378 4 541 12 715 35 98 13 296 13 340 0 19 -6 96 -10 170 -8 74
1 180 1 235 0 55 -2 179 -5 275 -6 96 -2 205 -8 242 -13 38 -5 78 -5 90 0 13
5 106 12 208 17 171 8 274 23 343 49 16 6 43 11 61 11 17 0 37 5 43 11 17 17
240 -9 463 -54 68 -14 289 -30 400 -29 25 0 205 5 400 10 244 6 375 6 420 -1
79 -13 308 -14 610 -3 205 8 231 11 290 34 57 22 85 25 229 30 95 2 209 -1
270 -7 98 -11 126 -18 173 -42 10 -5 27 -9 38 -9 11 0 20 -3 20 -8 0 -4 17
-13 38 -19 29 -9 144 -11 438 -7 377 4 446 9 554 35 25 6 77 14 115 19 39 4
117 13 175 20 58 6 131 9 163 5 31 -3 130 -6 220 -6 136 1 170 -2 212 -18 27
-11 70 -25 95 -31 25 -7 54 -16 65 -20 66 -26 133 -34 295 -34 191 -1 420 12
438 23 9 5 8 21 -2 62 -36 141 -81 412 -105 629 -30 263 -53 1079 -32 1118 14
26 54 38 186 57 266 38 603 56 1550 85 453 14 2367 14 2715 1 724 -29 1138
-68 1232 -119 84 -45 92 -59 97 -175 2 -56 -2 -169 -9 -250 -10 -132 -10 -151
4 -172 22 -33 49 -32 127 6 69 34 297 112 394 135 33 7 108 14 166 14 133 0
232 -24 354 -85 167 -84 281 -199 365 -370 77 -155 98 -287 76 -470 -12 -107
-19 -131 -60 -216 -25 -53 -61 -119 -79 -145 -73 -110 -69 -125 31 -100 69 18
197 21 304 6 40 -6 330 -12 643 -14 314 -2 605 -7 648 -11 l77 -8 0 4022 0
4021 -9595 0 -9595 0 0 -4026z"/>
<path d="M16735 5673 c-84 -18 -170 -52 -228 -89 -37 -24 -72 -44 -77 -44 -32
0 -123 -174 -163 -311 -41 -143 -70 -186 -153 -227 -53 -27 -66 -55 -98 -217
-26 -135 -68 -272 -131 -433 -34 -88 -35 -95 -20 -118 17 -27 38 -29 112 -14
26 5 109 19 183 30 74 12 162 30 195 40 33 10 76 21 95 25 114 23 465 175 558
242 26 18 51 33 57 33 20 1 159 137 184 182 14 25 42 70 62 100 39 58 71 163
71 232 0 50 -29 178 -48 214 -8 15 -14 31 -14 36 0 5 -12 33 -26 63 -30 61
-117 145 -205 199 -81 49 -259 78 -354 57z"/>
</g>
</svg>
